Oxygen-Medium.ufo
<glyph name="exclam" format="1">
  <advance width="511"/>
  <unicode hex="0021"/>
  <outline>
    <contour>
      <point x="256" y="-15" type="curve" smooth="yes"/>
      <point x="168" y="-15"/>
      <point x="111" y="53"/>
      <point x="111" y="128" type="curve" smooth="yes"/>
      <point x="111" y="203"/>
      <point x="168" y="272"/>
      <point x="256" y="272" type="curve" smooth="yes"/>
      <point x="344" y="272"/>
      <point x="399" y="203"/>
      <point x="399" y="128" type="curve" smooth="yes"/>
      <point x="399" y="53"/>
      <point x="344" y="-15"/>
    </contour>
    <contour>
      <point x="222" y="443" type="line" smooth="no"/>
      <point x="148" y="1251" type="line" smooth="no"/>
      <point x="148" y="1475" type="line" smooth="no"/>
      <point x="368" y="1475" type="line" smooth="no"/>
      <point x="368" y="1251" type="line" smooth="no"/>
      <point x="294" y="443" type="line" smooth="no"/>
    </contour>
  </outline>
</glyph>
<glyph name="quotesingle" format="1">
  <advance width="432"/>
  <unicode hex="0027"/>
  <outline>
    <contour>
      <point x="144" y="950" type="line" smooth="no"/>
      <point x="115" y="1474" type="line" smooth="no"/>
      <point x="302" y="1474" type="line" smooth="no"/>
      <point x="278" y="950" type="line" smooth="no"/>
    </contour>
  </outline>
</glyph>
<glyph name="parenleft" format="1">
  <advance width="631"/>
  <unicode hex="0028"/>
  <outline>
    <contour>
      <point x="377" y="-273" type="line" smooth="no"/>
      <point x="208" y="-42"/>
      <point x="97" y="258"/>
      <point x="97" y="598" type="curve" smooth="yes"/>
      <point x="97" y="944"/>
      <point x="205" y="1243"/>
      <point x="376" y="1487" type="curve" smooth="no"/>
      <point x="574" y="1487" type="line" smooth="no"/>
      <point x="436" y="1279"/>
      <point x="310" y="939"/>
      <point x="310" y="600" type="curve" smooth="yes"/>
      <point x="310" y="272"/>
      <point x="439" y="-75"/>
      <point x="573" y="-273" type="curve" smooth="no"/>
    </contour>
  </outline>
</glyph>
<glyph name="plus" format="1">
  <advance width="1155"/>
  <unicode hex="002b"/>
  <outline>
    <contour>
      <point x="495" y="149" type="line" smooth="no"/>
      <point x="495" y="567" type="line" smooth="no"/>
      <point x="92" y="567" type="line" smooth="no"/>
      <point x="92" y="733" type="line" smooth="no"/>
      <point x="496" y="733" type="line" smooth="no"/>
      <point x="496" y="1148" type="line" smooth="no"/>
      <point x="666" y="1148" type="line" smooth="no"/>
      <point x="666" y="733" type="line" smooth="no"/>
      <point x="1065" y="733" type="line" smooth="no"/>
      <point x="1065" y="567" type="line" smooth="no"/>
      <point x="665" y="567" type="line" smooth="no"/>
      <point x="665" y="149" type="line" smooth="no"/>
    </contour>
  </outline>
</glyph>
<glyph name="hyphen" format="1">
  <advance width="674"/>
  <unicode hex="002d"/>
  <outline>
    <contour>
      <point x="78" y="469" type="line" smooth="no"/>
      <point x="78" y="646" type="line" smooth="no"/>
      <point x="597" y="646" type="line" smooth="no"/>
      <point x="597" y="469" type="line" smooth="no"/>
    </contour>
  </outline>
</glyph>
<glyph name="period" format="1">
  <advance width="483"/>
  <unicode hex="002e"/>
  <outline>
    <contour>
      <point x="252" y="-15" type="curve" smooth="yes"/>
      <point x="164" y="-15"/>
      <point x="107" y="53"/>
      <point x="107" y="128" type="curve" smooth="yes"/>
      <point x="107" y="203"/>
      <point x="164" y="272"/>
      <point x="252" y="272" type="curve" smooth="yes"/>
      <point x="340" y="272"/>
      <point x="396" y="203"/>
      <point x="396" y="128" type="curve" smooth="yes"/>
      <point x="396" y="53"/>
      <point x="340" y="-15"/>
    </contour>
  </outline>
</glyph>
<glyph name="slash" format="1">
  <advance width="950"/>
  <unicode hex="002f"/>
  <outline>
    <contour>
      <point x="51" y="-202" type="line" smooth="no"/>
      <point x="698" y="1479" type="line" smooth="no"/>
      <point x="882" y="1479" type="line" smooth="no"/>
      <point x="232" y="-202" type="line" smooth="no"/>
    </contour>
  </outline>
</glyph>
<glyph name="six" format="1">
  <advance width="1202"/>
  <unicode hex="0036"/>
  <outline>
    <contour>
      <point x="602" y="156" type="curve" smooth="yes"/>
      <point x="793" y="156"/>
      <point x="900" y="284"/>
      <point x="900" y="450" type="curve" smooth="yes"/>
      <point x="900" y="625"/>
      <point x="799" y="749"/>
      <point x="603" y="749" type="curve" smooth="yes"/>
      <point x="396" y="749"/>
      <point x="315" y="619"/>
      <point x="315" y="452" type="curve" smooth="yes"/>
      <point x="315" y="286"/>
      <point x="412" y="156"/>
    </contour>
    <contour>
      <point x="611" y="-22" type="curve" smooth="yes"/>
      <point x="289" y="-22"/>
      <point x="82" y="185"/>
      <point x="82" y="467" type="curve" smooth="yes"/>
      <point x="82" y="676"/>
      <point x="166" y="814"/>
      <point x="319" y="1010" type="curve" smooth="yes"/>
      <point x="369" y="1074"/>
      <point x="694" y="1477"/>
      <point x="694" y="1477" type="curve" smooth="no"/>
      <point x="968" y="1477" type="line" smooth="no"/>
      <point x="481" y="879" type="line" smooth="no"/>
      <point x="533" y="902"/>
      <point x="588" y="920"/>
      <point x="650" y="920" type="curve" smooth="yes"/>
      <point x="920" y="920"/>
      <point x="1130" y="728"/>
      <point x="1130" y="453" type="curve" smooth="yes"/>
      <point x="1130" y="174"/>
      <point x="921" y="-22"/>
    </contour>
  </outline>
</glyph>
<glyph name="equal" format="1">
  <advance width="1214"/>
  <unicode hex="003d"/>
  <outline>
    <contour>
      <point x="110" y="775" type="line" smooth="no"/>
      <point x="110" y="945" type="line" smooth="no"/>
      <point x="1104" y="945" type="line" smooth="no"/>
      <point x="1104" y="775" type="line" smooth="no"/>
    </contour>
    <contour>
      <point x="111" y="366" type="line" smooth="no"/>
      <point x="111" y="535" type="line" smooth="no"/>
      <point x="1105" y="535" type="line" smooth="no"/>
      <point x="1105" y="366" type="line" smooth="no"/>
    </contour>
  </outline>
</glyph>
<glyph name="question" format="1">
  <advance width="877"/>
  <unicode hex="003f"/>
  <outline>
    <contour>
      <point x="375" y="-15" type="curve" smooth="yes"/>
      <point x="287" y="-15"/>
      <point x="231" y="53"/>
      <point x="231" y="128" type="curve" smooth="yes"/>
      <point x="231" y="203"/>
      <point x="287" y="272"/>
      <point x="375" y="272" type="curve" smooth="yes"/>
      <point x="463" y="272"/>
      <point x="519" y="203"/>
      <point x="519" y="128" type="curve" smooth="yes"/>
      <point x="519" y="53"/>
      <point x="463" y="-15"/>
    </contour>
    <contour>
      <point x="320" y="442" type="line" smooth="no"/>
      <point x="340" y="704"/>
      <point x="604" y="955"/>
      <point x="604" y="1147" type="curve" smooth="no"/>
      <point x="603" y="1270"/>
      <point x="520" y="1335"/>
      <point x="389" y="1335" type="curve" smooth="yes"/>
      <point x="261" y="1335"/>
      <point x="173" y="1285"/>
      <point x="120" y="1252" type="curve" smooth="no"/>
      <point x="61" y="1404" type="line" smooth="no"/>
      <point x="157" y="1472"/>
      <point x="276" y="1505"/>
      <point x="416" y="1505" type="curve" smooth="yes"/>
      <point x="612" y="1505"/>
      <point x="792" y="1393"/>
      <point x="792" y="1172" type="curve" smooth="yes"/>
      <point x="792" y="916"/>
      <point x="573" y="762"/>
      <point x="420" y="442" type="curve" smooth="no"/>
    </contour>
  </outline>
</glyph>
<glyph name="at" format="1">
  <advance width="1752"/>
  <unicode hex="0040"/>
  <outline>
    <contour>
      <point x="793" y="351" type="curve" smooth="yes"/>
      <point x="947" y="351"/>
      <point x="1018" y="536"/>
      <point x="1051" y="739" type="curve" smooth="yes"/>
      <point x="1061" y="802"/>
      <point x="1069" y="865"/>
      <point x="1077" y="926" type="curve" smooth="no"/>
      <point x="1041" y="936"/>
      <point x="992" y="941"/>
      <point x="949" y="941" type="curve" smooth="yes"/>
      <point x="766" y="941"/>
      <point x="654" y="749"/>
      <point x="654" y="554" type="curve" smooth="yes"/>
      <point x="654" y="440"/>
      <point x="695" y="351"/>
    </contour>
    <contour>
      <point x="888" y="-171" type="curve" smooth="yes"/>
      <point x="413" y="-171"/>
      <point x="88" y="133"/>
      <point x="88" y="615" type="curve" smooth="yes"/>
      <point x="88" y="1087"/>
      <point x="437" y="1442"/>
      <point x="920" y="1442" type="curve" smooth="yes"/>
      <point x="1343" y="1442"/>
      <point x="1665" y="1163"/>
      <point x="1665" y="740" type="curve" smooth="yes"/>
      <point x="1665" y="418"/>
      <point x="1454" y="204"/>
      <point x="1238" y="204" type="curve" smooth="yes"/>
      <point x="1132" y="204"/>
      <point x="1054" y="264"/>
      <point x="1046" y="400" type="curve" smooth="no"/>
      <point x="999" y="308"/>
      <point x="903" y="216"/>
      <point x="783" y="216" type="curve" smooth="yes"/>
      <point x="601" y="216"/>
      <point x="493" y="348"/>
      <point x="493" y="549" type="curve" smooth="yes"/>
      <point x="493" y="826"/>
      <point x="666" y="1063"/>
      <point x="940" y="1063" type="curve" smooth="yes"/>
      <point x="1047" y="1063"/>
      <point x="1163" y="1033"/>
      <point x="1250" y="1003" type="curve" smooth="no"/>
      <point x="1217" y="799"/>
      <point x="1164" y="568"/>
      <point x="1164" y="450" type="curve" smooth="yes"/>
      <point x="1164" y="367"/>
      <point x="1196" y="337"/>
      <point x="1257" y="337" type="curve" smooth="yes"/>
      <point x="1394" y="337"/>
      <point x="1521" y="533"/>
      <point x="1521" y="745" type="curve" smooth="yes"/>
      <point x="1521" y="1091"/>
      <point x="1265" y="1307"/>
      <point x="915" y="1307" type="curve" smooth="yes"/>
      <point x="473" y="1307"/>
      <point x="238" y="947"/>
      <point x="238" y="611" type="curve" smooth="yes"/>
      <point x="238" y="196"/>
      <point x="518" y="-36"/>
      <point x="888" y="-36" type="curve" smooth="yes"/>
      <point x="1055" y="-36"/>
      <point x="1221" y="5"/>
      <point x="1363" y="100" type="curve" smooth="no"/>
      <point x="1409" y="-10" type="line" smooth="no"/>
      <point x="1277" y="-110"/>
      <point x="1103" y="-171"/>
    </contour>
  </outline>
</glyph>
<glyph name="N" format="1">
  <advance width="1537"/>
  <unicode hex="004e"/>
  <outline>
    <contour>
      <point x="165" y="0" type="line" smooth="no"/>
      <point x="165" y="1471" type="line" smooth="no"/>
      <point x="409" y="1471" type="line" smooth="no"/>
      <point x="484" y="1355"/>
      <point x="1017" y="543"/>
      <point x="1093" y="427" type="curve" smooth="yes"/>
      <point x="1109" y="402"/>
      <point x="1155" y="336"/>
      <point x="1171" y="312" type="curve" smooth="no"/>
      <point x="1171" y="312"/>
      <point x="1164" y="644"/>
      <point x="1164" y="674" type="curve" smooth="yes"/>
      <point x="1164" y="1471" type="line" smooth="no"/>
      <point x="1371" y="1471" type="line" smooth="no"/>
      <point x="1371" y="0" type="line" smooth="no"/>
      <point x="1124" y="0" type="line" smooth="no"/>
      <point x="414" y="1092" type="line" smooth="no"/>
      <point x="364" y="1166" type="line" smooth="no"/>
      <point x="367" y="1088"/>
      <point x="373" y="864"/>
      <point x="373" y="793" type="curve" smooth="yes"/>
      <point x="373" y="0" type="line" smooth="no"/>
    </contour>
  </outline>
</glyph>
<glyph name="Q" format="1">
  <advance width="1626"/>
  <unicode hex="0051"/>
  <outline>
    <contour>
      <point x="814" y="167" type="curve" smooth="yes"/>
      <point x="1132" y="167"/>
      <point x="1283" y="386"/>
      <point x="1283" y="734" type="curve" smooth="yes"/>
      <point x="1283" y="1091"/>
      <point x="1128" y="1307"/>
      <point x="815" y="1307" type="curve" smooth="yes"/>
      <point x="502" y="1307"/>
      <point x="343" y="1091"/>
      <point x="343" y="734" type="curve" smooth="yes"/>
      <point x="343" y="386"/>
      <point x="497" y="167"/>
    </contour>
    <contour>
      <point x="1259" y="-474" type="line" smooth="no"/>
      <point x="1178" y="-410"/>
      <point x="999" y="-178"/>
      <point x="916" y="-15" type="curve" smooth="no"/>
      <point x="883" y="-19"/>
      <point x="849" y="-21"/>
      <point x="814" y="-21" type="curve" smooth="yes"/>
      <point x="366" y="-21"/>
      <point x="105" y="270"/>
      <point x="105" y="736" type="curve" smooth="yes"/>
      <point x="105" y="1210"/>
      <point x="372" y="1495"/>
      <point x="815" y="1495" type="curve" smooth="yes"/>
      <point x="1254" y="1495"/>
      <point x="1521" y="1207"/>
      <point x="1521" y="735" type="curve" smooth="yes"/>
      <point x="1521" y="396"/>
      <point x="1378" y="145"/>
      <point x="1125" y="37" type="curve" smooth="no"/>
      <point x="1150" y="-3"/>
      <point x="1272" y="-209"/>
      <point x="1407" y="-337" type="curve" smooth="no"/>
    </contour>
  </outline>
</glyph>
<glyph name="T" format="1">
  <advance width="1128"/>
  <unicode hex="0054"/>
  <outline>
    <contour>
      <point x="451" y="0" type="line" smooth="no"/>
      <point x="451" y="1284" type="line" smooth="no"/>
      <point x="11" y="1284" type="line" smooth="no"/>
      <point x="11" y="1471" type="line" smooth="no"/>
      <point x="1116" y="1471" type="line" smooth="no"/>
      <point x="1116" y="1284" type="line" smooth="no"/>
      <point x="677" y="1284" type="line" smooth="no"/>
      <point x="677" y="0" type="line" smooth="no"/>
    </contour>
  </outline>
</glyph>
<glyph name="U" format="1">
  <advance width="1454"/>
  <unicode hex="0055"/>
  <outline>
    <contour>
      <point x="722" y="-21" type="curve" smooth="yes"/>
      <point x="330" y="-21"/>
      <point x="150" y="188"/>
      <point x="150" y="524" type="curve" smooth="yes"/>
      <point x="150" y="1471" type="line" smooth="no"/>
      <point x="376" y="1471" type="line" smooth="no"/>
      <point x="376" y="535" type="line" smooth="yes"/>
      <point x="376" y="281"/>
      <point x="481" y="166"/>
      <point x="727" y="166" type="curve" smooth="yes"/>
      <point x="968" y="166"/>
      <point x="1076" y="282"/>
      <point x="1076" y="536" type="curve" smooth="yes"/>
      <point x="1076" y="1471" type="line" smooth="no"/>
      <point x="1302" y="1471" type="line" smooth="no"/>
      <point x="1302" y="522" type="line" smooth="yes"/>
      <point x="1302" y="188"/>
      <point x="1114" y="-21"/>
    </contour>
  </outline>
</glyph>
<glyph name="W" format="1">
  <advance width="2034"/>
  <unicode hex="0057"/>
  <outline>
    <contour>
      <point x="425" y="0" type="line" smooth="no"/>
      <point x="5" y="1471" type="line" smooth="no"/>
      <point x="234" y="1471" type="line" smooth="no"/>
      <point x="556" y="270" type="line" smooth="no"/>
      <point x="905" y="1455" type="line" smooth="no"/>
      <point x="1134" y="1455" type="line" smooth="no"/>
      <point x="1469" y="268" type="line" smooth="no"/>
      <point x="1795" y="1471" type="line" smooth="no"/>
      <point x="2024" y="1471" type="line" smooth="no"/>
      <point x="1595" y="0" type="line" smooth="no"/>
      <point x="1356" y="0" type="line" smooth="no"/>
      <point x="1022" y="1151" type="line" smooth="no"/>
      <point x="663" y="0" type="line" smooth="no"/>
    </contour>
  </outline>
</glyph>
<glyph name="b" format="1">
  <advance width="1236"/>
  <unicode hex="0062"/>
  <outline>
    <contour>
      <point x="648" y="150" type="curve" smooth="yes"/>
      <point x="833" y="150"/>
      <point x="930" y="310"/>
      <point x="930" y="554" type="curve" smooth="yes"/>
      <point x="930" y="800"/>
      <point x="835" y="953"/>
      <point x="650" y="953" type="curve" smooth="yes"/>
      <point x="466" y="953"/>
      <point x="355" y="829"/>
      <point x="354" y="561" type="curve" smooth="no"/>
      <point x="354" y="287"/>
      <point x="449" y="150"/>
    </contour>
    <contour>
      <point x="690" y="-22" type="curve" smooth="yes"/>
      <point x="533" y="-22"/>
      <point x="409" y="58"/>
      <point x="347" y="146" type="curve" smooth="no"/>
      <point x="326" y="0" type="line" smooth="no"/>
      <point x="137" y="0" type="line" smooth="no"/>
      <point x="137" y="1513" type="line" smooth="no"/>
      <point x="356" y="1527" type="line" smooth="no"/>
      <point x="356" y="1176" type="line" smooth="yes"/>
      <point x="356" y="1103"/>
      <point x="354" y="1027"/>
      <point x="351" y="948" type="curve" smooth="no"/>
      <point x="415" y="1037"/>
      <point x="530" y="1123"/>
      <point x="694" y="1123" type="curve" smooth="yes"/>
      <point x="986" y="1123"/>
      <point x="1150" y="885"/>
      <point x="1150" y="558" type="curve" smooth="yes"/>
      <point x="1150" y="216"/>
      <point x="980" y="-22"/>
    </contour>
  </outline>
</glyph>
<glyph name="h" format="1">
  <advance width="1220"/>
  <unicode hex="0068"/>
  <outline>
    <contour>
      <point x="137" y="0" type="line" smooth="no"/>
      <point x="137" y="1513" type="line" smooth="no"/>
      <point x="356" y="1527" type="line" smooth="no"/>
      <point x="356" y="1150" type="line" smooth="yes"/>
      <point x="356" y="1105"/>
      <point x="352" y="984"/>
      <point x="350" y="959" type="curve" smooth="no"/>
      <point x="424" y="1048"/>
      <point x="540" y="1123"/>
      <point x="713" y="1123" type="curve" smooth="yes"/>
      <point x="955" y="1123"/>
      <point x="1091" y="985"/>
      <point x="1091" y="693" type="curve" smooth="yes"/>
      <point x="1091" y="0" type="line" smooth="no"/>
      <point x="872" y="0" type="line" smooth="no"/>
      <point x="872" y="665" type="line" smooth="yes"/>
      <point x="872" y="857"/>
      <point x="820" y="951"/>
      <point x="662" y="951" type="curve" smooth="yes"/>
      <point x="517" y="951"/>
      <point x="411" y="869"/>
      <point x="373" y="761" type="curve" smooth="no"/>
      <point x="361" y="703"/>
      <point x="356" y="634"/>
      <point x="356" y="555" type="curve" smooth="yes"/>
      <point x="356" y="0" type="line" smooth="no"/>
    </contour>
  </outline>
</glyph>
<glyph name="j" format="1">
  <advance width="489"/>
  <unicode hex="006a"/>
  <outline>
    <contour>
      <point x="163" y="1277" type="line" smooth="no"/>
      <point x="163" y="1489" type="line" smooth="no"/>
      <point x="382" y="1489" type="line" smooth="no"/>
      <point x="382" y="1277" type="line" smooth="no"/>
    </contour>
    <contour>
      <point x="-51" y="-462" type="line" smooth="no"/>
      <point x="-77" y="-287" type="line" smooth="no"/>
      <point x="-22" y="-287" type="line" smooth="yes"/>
      <point x="151" y="-287"/>
      <point x="163" y="-229"/>
      <point x="163" y="-64" type="curve" smooth="yes"/>
      <point x="163" y="1098" type="line" smooth="no"/>
      <point x="382" y="1098" type="line" smooth="no"/>
      <point x="382" y="-50" type="line" smooth="yes"/>
      <point x="382" y="-340"/>
      <point x="319" y="-462"/>
      <point x="4" y="-462" type="curve" smooth="yes"/>
    </contour>
  </outline>
</glyph>
<glyph name="o" format="1">
  <advance width="1212"/>
  <unicode hex="006f"/>
  <outline>
    <contour>
      <point x="601" y="-22" type="curve" smooth="yes"/>
      <point x="279" y="-22"/>
      <point x="86" y="217"/>
      <point x="86" y="550" type="curve" smooth="yes"/>
      <point x="86" y="893"/>
      <point x="276" y="1123"/>
      <point x="611" y="1123" type="curve" smooth="yes"/>
      <point x="938" y="1123"/>
      <point x="1126" y="887"/>
      <point x="1126" y="551" type="curve" smooth="yes"/>
      <point x="1126" y="211"/>
      <point x="936" y="-22"/>
    </contour>
    <contour>
      <point x="608" y="149" type="curve" smooth="yes"/>
      <point x="810" y="149"/>
      <point x="905" y="305"/>
      <point x="905" y="550" type="curve" smooth="yes"/>
      <point x="905" y="798"/>
      <point x="812" y="952"/>
      <point x="606" y="952" type="curve" smooth="yes"/>
      <point x="405" y="952"/>
      <point x="307" y="796"/>
      <point x="307" y="549" type="curve" smooth="yes"/>
      <point x="307" y="306"/>
      <point x="405" y="149"/>
    </contour>
  </outline>
</glyph>
<glyph name="q" format="1">
  <advance width="1237"/>
  <unicode hex="0071"/>
  <outline>
    <contour>
      <point x="591" y="151" type="curve" smooth="yes"/>
      <point x="785" y="151"/>
      <point x="881" y="275"/>
      <point x="884" y="532" type="curve" smooth="no"/>
      <point x="884" y="813"/>
      <point x="792" y="949"/>
      <point x="589" y="949" type="curve" smooth="yes"/>
      <point x="406" y="949"/>
      <point x="308" y="796"/>
      <point x="308" y="550" type="curve" smooth="yes"/>
      <point x="308" y="304"/>
      <point x="404" y="151"/>
    </contour>
    <contour>
      <point x="879" y="-466" type="line" smooth="no"/>
      <point x="879" y="9" type="line" smooth="yes"/>
      <point x="879" y="57"/>
      <point x="881" y="106"/>
      <point x="884" y="154" type="curve" smooth="no"/>
      <point x="832" y="73"/>
      <point x="731" y="-22"/>
      <point x="554" y="-22" type="curve" smooth="yes"/>
      <point x="264" y="-22"/>
      <point x="88" y="216"/>
      <point x="88" y="549" type="curve" smooth="yes"/>
      <point x="88" y="882"/>
      <point x="251" y="1123"/>
      <point x="554" y="1123" type="curve" smooth="yes"/>
      <point x="720" y="1123"/>
      <point x="824" y="1041"/>
      <point x="888" y="951" type="curve" smooth="no"/>
      <point x="905" y="1098" type="line" smooth="no"/>
      <point x="1097" y="1098" type="line" smooth="no"/>
      <point x="1097" y="-454" type="line" smooth="no"/>
    </contour>
  </outline>
</glyph>
<glyph name="t" format="1">
  <advance width="780"/>
  <unicode hex="0074"/>
  <outline>
    <contour>
      <point x="538" y="-17" type="curve" smooth="yes"/>
      <point x="274" y="-17"/>
      <point x="197" y="109"/>
      <point x="194" y="371" type="curve" smooth="yes"/>
      <point x="194" y="955" type="line" smooth="no"/>
      <point x="22" y="955" type="line" smooth="no"/>
      <point x="31" y="1083" type="line" smooth="no"/>
      <point x="204" y="1098" type="line" smooth="no"/>
      <point x="275" y="1374" type="line" smooth="no"/>
      <point x="412" y="1377" type="line" smooth="no"/>
      <point x="412" y="1098" type="line" smooth="no"/>
      <point x="699" y="1098" type="line" smooth="no"/>
      <point x="699" y="955" type="line" smooth="no"/>
      <point x="412" y="955" type="line" smooth="no"/>
      <point x="412" y="383" type="line" smooth="yes"/>
      <point x="412" y="218"/>
      <point x="452" y="153"/>
      <point x="580" y="153" type="curve" smooth="yes"/>
      <point x="624" y="153"/>
      <point x="680" y="161"/>
      <point x="712" y="166" type="curve" smooth="no"/>
      <point x="719" y="4" type="line" smooth="no"/>
      <point x="672" y="-4"/>
      <point x="602" y="-17"/>
    </contour>
  </outline>
</glyph>
<glyph name="y" format="1">
  <advance width="1072"/>
  <unicode hex="0079"/>
  <outline>
    <contour>
      <point x="161" y="-478" type="curve" smooth="yes"/>
      <point x="121" y="-478"/>
      <point x="81" y="-475"/>
      <point x="41" y="-470" type="curve" smooth="no"/>
      <point x="30" y="-296" type="line" smooth="no"/>
      <point x="63" y="-299"/>
      <point x="98" y="-301"/>
      <point x="132" y="-301" type="curve" smooth="yes"/>
      <point x="265" y="-301"/>
      <point x="332" y="-259"/>
      <point x="386" y="-121" type="curve" smooth="yes"/>
      <point x="402" y="-81"/>
      <point x="419" y="-36"/>
      <point x="436" y="14" type="curve" smooth="no"/>
      <point x="-2" y="1098" type="line" smooth="no"/>
      <point x="230" y="1098" type="line" smooth="no"/>
      <point x="546" y="247" type="line" smooth="no"/>
      <point x="576" y="356"/>
      <point x="797" y="994"/>
      <point x="831" y="1098" type="curve" smooth="no"/>
      <point x="1064" y="1098" type="line" smooth="no"/>
      <point x="1064" y="1098"/>
      <point x="613" y="-117"/>
      <point x="604" y="-139" type="curve" smooth="yes"/>
      <point x="511" y="-376"/>
      <point x="384" y="-478"/>
    </contour>
  </outline>
</glyph>
<glyph name="sterling" format="1">
  <advance width="1141"/>
  <unicode hex="00a3"/>
  <outline>
    <contour>
      <point x="90" y="0" type="line" smooth="no"/>
      <point x="77" y="166" type="line" smooth="no"/>
      <point x="211" y="220"/>
      <point x="260" y="303"/>
      <point x="260" y="459" type="curve" smooth="yes"/>
      <point x="260" y="669" type="line" smooth="no"/>
      <point x="74" y="669" type="line" smooth="no"/>
      <point x="74" y="828" type="line" smooth="no"/>
      <point x="260" y="828" type="line" smooth="no"/>
      <point x="260" y="928" type="line" smooth="yes"/>
      <point x="260" y="1241"/>
      <point x="358" y="1494"/>
      <point x="700" y="1494" type="curve" smooth="yes"/>
      <point x="854" y="1494"/>
      <point x="976" y="1439"/>
      <point x="1072" y="1359" type="curve" smooth="no"/>
      <point x="980" y="1213" type="line" smooth="no"/>
      <point x="892" y="1275"/>
      <point x="808" y="1315"/>
      <point x="705" y="1315" type="curve" smooth="yes"/>
      <point x="534" y="1315"/>
      <point x="473" y="1194"/>
      <point x="473" y="1006" type="curve" smooth="yes"/>
      <point x="473" y="828" type="line" smooth="no"/>
      <point x="873" y="828" type="line" smooth="no"/>
      <point x="873" y="669" type="line" smooth="no"/>
      <point x="473" y="669" type="line" smooth="no"/>
      <point x="473" y="513" type="line" smooth="yes"/>
      <point x="473" y="371"/>
      <point x="449" y="260"/>
      <point x="357" y="185" type="curve" smooth="no"/>
      <point x="376" y="186"/>
      <point x="460" y="188"/>
      <point x="479" y="188" type="curve" smooth="yes"/>
      <point x="1088" y="188" type="line" smooth="no"/>
      <point x="1084" y="0" type="line" smooth="no"/>
    </contour>
  </outline>
</glyph>
<glyph name="currency" format="1">
  <advance width="1157"/>
  <unicode hex="00a4"/>
  <outline>
    <contour>
      <point x="579" y="440" type="curve" smooth="yes"/>
      <point x="743" y="440"/>
      <point x="874" y="571"/>
      <point x="874" y="732" type="curve" smooth="yes"/>
      <point x="874" y="893"/>
      <point x="742" y="1025"/>
      <point x="579" y="1025" type="curve" smooth="yes"/>
      <point x="416" y="1025"/>
      <point x="284" y="892"/>
      <point x="284" y="732" type="curve" smooth="yes"/>
      <point x="284" y="571"/>
      <point x="416" y="440"/>
    </contour>
    <contour>
      <point x="1022" y="230" type="line" smooth="no"/>
      <point x="836" y="405" type="line" smooth="no"/>
      <point x="763" y="348"/>
      <point x="676" y="316"/>
      <point x="579" y="316" type="curve" smooth="yes"/>
      <point x="479" y="316"/>
      <point x="391" y="348"/>
      <point x="321" y="404" type="curve" smooth="no"/>
      <point x="138" y="231" type="line" smooth="no"/>
      <point x="54" y="314" type="line" smooth="no"/>
      <point x="239" y="489" type="line" smooth="no"/>
      <point x="188" y="559"/>
      <point x="160" y="643"/>
      <point x="160" y="732" type="curve" smooth="yes"/>
      <point x="160" y="821"/>
      <point x="188" y="903"/>
      <point x="239" y="975" type="curve" smooth="no"/>
      <point x="53" y="1151" type="line" smooth="no"/>
      <point x="138" y="1234" type="line" smooth="no"/>
      <point x="321" y="1060" type="line" smooth="no"/>
      <point x="393" y="1117"/>
      <point x="482" y="1149"/>
      <point x="579" y="1149" type="curve" smooth="yes"/>
      <point x="676" y="1149"/>
      <point x="764" y="1116"/>
      <point x="836" y="1059" type="curve" smooth="no"/>
      <point x="1022" y="1234" type="line" smooth="no"/>
      <point x="1103" y="1150" type="line" smooth="no"/>
      <point x="919" y="975" type="line" smooth="no"/>
      <point x="970" y="903"/>
      <point x="998" y="820"/>
      <point x="998" y="732" type="curve" smooth="yes"/>
      <point x="998" y="641"/>
      <point x="971" y="559"/>
      <point x="920" y="489" type="curve" smooth="no"/>
      <point x="1102" y="315" type="line" smooth="no"/>
    </contour>
  </outline>
</glyph>
<glyph name="dieresis" format="1">
  <advance width="771"/>
  <unicode hex="00a8"/>
  <outline>
    <contour>
      <point x="503" y="1244" type="line" smooth="no"/>
      <point x="503" y="1479" type="line" smooth="no"/>
      <point x="680" y="1479" type="line" smooth="no"/>
      <point x="680" y="1244" type="line" smooth="no"/>
    </contour>
    <contour>
      <point x="97" y="1244" type="line" smooth="no"/>
      <point x="97" y="1479" type="line" smooth="no"/>
      <point x="272" y="1479" type="line" smooth="no"/>
      <point x="272" y="1244" type="line" smooth="no"/>
    </contour>
  </outline>
</glyph>
<glyph name="ordfeminine" format="1">
  <advance width="780"/>
  <unicode hex="00aa"/>
  <outline>
    <contour>
      <point x="341" y="905" type="curve" smooth="yes"/>
      <point x="433" y="905"/>
      <point x="494" y="979"/>
      <point x="523" y="1075" type="curve" smooth="no"/>
      <point x="523" y="1147" type="line" smooth="no"/>
      <point x="377" y="1129"/>
      <point x="239" y="1122"/>
      <point x="239" y="1005" type="curve" smooth="yes"/>
      <point x="239" y="936"/>
      <point x="282" y="905"/>
    </contour>
    <contour>
      <point x="122" y="582" type="line" smooth="no"/>
      <point x="122" y="695" type="line" smooth="no"/>
      <point x="676" y="695" type="line" smooth="no"/>
      <point x="676" y="582" type="line" smooth="no"/>
    </contour>
    <contour>
      <point x="323" y="785" type="curve" smooth="yes"/>
      <point x="199" y="785"/>
      <point x="99" y="865"/>
      <point x="99" y="1003" type="curve" smooth="yes"/>
      <point x="99" y="1205"/>
      <point x="314" y="1229"/>
      <point x="523" y="1247" type="curve" smooth="no"/>
      <point x="523" y="1273" type="line" smooth="no"/>
      <point x="521" y="1382"/>
      <point x="487" y="1425"/>
      <point x="396" y="1425" type="curve" smooth="yes"/>
      <point x="327" y="1425"/>
      <point x="250" y="1413"/>
      <point x="163" y="1353" type="curve" smooth="no"/>
      <point x="112" y="1448" type="line" smooth="no"/>
      <point x="196" y="1521"/>
      <point x="300" y="1549"/>
      <point x="408" y="1549" type="curve" smooth="yes"/>
      <point x="547" y="1549"/>
      <point x="665" y="1481"/>
      <point x="665" y="1296" type="curve" smooth="yes"/>
      <point x="664" y="932" type="line" smooth="yes"/>
      <point x="664" y="924"/>
      <point x="664" y="856"/>
      <point x="667" y="802" type="curve" smooth="no"/>
      <point x="540" y="802" type="line" smooth="no"/>
      <point x="529" y="884" type="line" smooth="no"/>
      <point x="488" y="825"/>
      <point x="407" y="785"/>
    </contour>
  </outline>
</glyph>
<glyph name="uni00AD" format="1">
  <advance width="838"/>
  <unicode hex="00ad"/>
  <outline>
    <contour>
      <point x="91" y="314" type="line" smooth="no"/>
      <point x="91" y="493" type="line" smooth="no"/>
      <point x="750" y="493" type="line" smooth="no"/>
      <point x="750" y="314" type="line" smooth="no"/>
    </contour>
  </outline>
</glyph>
<glyph name="uni00B2" format="1">
  <advance width="801"/>
  <unicode hex="00b2"/>
  <outline>
    <contour>
      <point x="140" y="609" type="line" smooth="no"/>
      <point x="140" y="740" type="line" smooth="no"/>
      <point x="346" y="923"/>
      <point x="521" y="1107"/>
      <point x="521" y="1225" type="curve" smooth="yes"/>
      <point x="521" y="1302"/>
      <point x="463" y="1348"/>
      <point x="390" y="1348" type="curve" smooth="yes"/>
      <point x="315" y="1348"/>
      <point x="248" y="1298"/>
      <point x="209" y="1221" type="curve" smooth="no"/>
      <point x="139" y="1325" type="line" smooth="no"/>
      <point x="193" y="1426"/>
      <point x="281" y="1490"/>
      <point x="406" y="1490" type="curve" smooth="yes"/>
      <point x="545" y="1490"/>
      <point x="661" y="1389"/>
      <point x="661" y="1229" type="curve" smooth="yes"/>
      <point x="661" y="1042"/>
      <point x="526" y="915"/>
      <point x="345" y="744" type="curve" smooth="no"/>
      <point x="661" y="744" type="line" smooth="no"/>
      <point x="653" y="609" type="line" smooth="no"/>
    </contour>
  </outline>
</glyph>
<glyph name="uni00B3" format="1">
  <advance width="780"/>
  <unicode hex="00b3"/>
  <outline>
    <contour>
      <point x="366" y="616" type="curve" smooth="yes"/>
      <point x="279" y="616"/>
      <point x="194" y="647"/>
      <point x="128" y="708" type="curve" smooth="no"/>
      <point x="180" y="823" type="line" smooth="no"/>
      <point x="229" y="774"/>
      <point x="303" y="745"/>
      <point x="363" y="745" type="curve" smooth="yes"/>
      <point x="450" y="745"/>
      <point x="513" y="796"/>
      <point x="513" y="889" type="curve" smooth="yes"/>
      <point x="513" y="985"/>
      <point x="440" y="1024"/>
      <point x="323" y="1024" type="curve" smooth="no"/>
      <point x="260" y="1023" type="line" smooth="no"/>
      <point x="260" y="1155" type="line" smooth="no"/>
      <point x="323" y="1155" type="line" smooth="yes"/>
      <point x="430" y="1155"/>
      <point x="487" y="1191"/>
      <point x="487" y="1268" type="curve" smooth="yes"/>
      <point x="487" y="1336"/>
      <point x="444" y="1375"/>
      <point x="368" y="1375" type="curve" smooth="yes"/>
      <point x="299" y="1375"/>
      <point x="228" y="1342"/>
      <point x="182" y="1302" type="curve" smooth="no"/>
      <point x="132" y="1409" type="line" smooth="no"/>
      <point x="193" y="1469"/>
      <point x="280" y="1508"/>
      <point x="374" y="1508" type="curve" smooth="yes"/>
      <point x="508" y="1508"/>
      <point x="631" y="1429"/>
      <point x="631" y="1271" type="curve" smooth="no"/>
      <point x="630" y="1194"/>
      <point x="594" y="1129"/>
      <point x="519" y="1095" type="curve" smooth="no"/>
      <point x="593" y="1061"/>
      <point x="651" y="987"/>
      <point x="651" y="886" type="curve" smooth="yes"/>
      <point x="651" y="713"/>
      <point x="519" y="616"/>
    </contour>
  </outline>
</glyph>
<glyph name="acute" format="1">
  <advance width="628"/>
  <unicode hex="00b4"/>
  <outline>
    <contour>
      <point x="162" y="1220" type="line" smooth="no"/>
      <point x="340" y="1606" type="line" smooth="no"/>
      <point x="617" y="1606" type="line" smooth="no"/>
      <point x="298" y="1220" type="line" smooth="no"/>
    </contour>
  </outline>
</glyph>
<glyph name="paragraph" format="1">
  <advance width="1139"/>
  <unicode hex="00b6"/>
  <outline>
    <contour>
      <point x="407" y="-154" type="line" smooth="no"/>
      <point x="407" y="812" type="line" smooth="no"/>
      <point x="193" y="823"/>
      <point x="48" y="989"/>
      <point x="48" y="1175" type="curve" smooth="yes"/>
      <point x="48" y="1392"/>
      <point x="230" y="1521"/>
      <point x="540" y="1521" type="curve" smooth="yes"/>
      <point x="980" y="1521" type="line" smooth="no"/>
      <point x="980" y="1368" type="line" smooth="no"/>
      <point x="901" y="1368" type="line" smooth="no"/>
      <point x="901" y="-154" type="line" smooth="no"/>
      <point x="759" y="-154" type="line" smooth="no"/>
      <point x="759" y="1368" type="line" smooth="no"/>
      <point x="569" y="1368" type="line" smooth="no"/>
      <point x="569" y="-154" type="line" smooth="no"/>
    </contour>
  </outline>
</glyph>
<glyph name="Thorn" format="1">
  <advance width="1310"/>
  <unicode hex="00de"/>
  <outline>
    <contour>
      <point x="365" y="515" type="line" smooth="no"/>
      <point x="724" y="515" type="line" smooth="yes"/>
      <point x="945" y="515"/>
      <point x="1045" y="623"/>
      <point x="1045" y="788" type="curve" smooth="yes"/>
      <point x="1045" y="978"/>
      <point x="935" y="1060"/>
      <point x="689" y="1060" type="curve" smooth="yes"/>
      <point x="365" y="1060" type="line" smooth="no"/>
    </contour>
    <contour>
      <point x="164" y="6" type="line" smooth="no"/>
      <point x="164" y="1473" type="line" smooth="no"/>
      <point x="365" y="1473" type="line" smooth="no"/>
      <point x="365" y="1223" type="line" smooth="no"/>
      <point x="669" y="1223" type="line" smooth="yes"/>
      <point x="1016" y="1223"/>
      <point x="1244" y="1107"/>
      <point x="1244" y="788" type="curve" smooth="yes"/>
      <point x="1244" y="508"/>
      <point x="1052" y="339"/>
      <point x="722" y="339" type="curve" smooth="yes"/>
      <point x="717" y="339"/>
      <point x="365" y="343"/>
      <point x="365" y="343" type="curve" smooth="no"/>
      <point x="365" y="6" type="line" smooth="no"/>
    </contour>
  </outline>
</glyph>
<glyph name="eth" format="1">
  <advance width="1216"/>
  <unicode hex="00f0"/>
  <outline>
    <contour>
      <point x="617" y="148" type="curve" smooth="yes"/>
      <point x="820" y="148"/>
      <point x="931" y="284"/>
      <point x="931" y="472" type="curve" smooth="yes"/>
      <point x="931" y="650"/>
      <point x="819" y="801"/>
      <point x="611" y="801" type="curve" smooth="yes"/>
      <point x="409" y="801"/>
      <point x="298" y="665"/>
      <point x="298" y="481" type="curve" smooth="yes"/>
      <point x="298" y="299"/>
      <point x="409" y="148"/>
    </contour>
    <contour>
      <point x="615" y="-23" type="curve" smooth="yes"/>
      <point x="287" y="-23"/>
      <point x="85" y="194"/>
      <point x="85" y="476" type="curve" smooth="yes"/>
      <point x="85" y="775"/>
      <point x="279" y="962"/>
      <point x="575" y="962" type="curve" smooth="yes"/>
      <point x="667" y="962"/>
      <point x="734" y="929"/>
      <point x="783" y="902" type="curve" smooth="no"/>
      <point x="755" y="954"/>
      <point x="616" y="1126"/>
      <point x="522" y="1222" type="curve" smooth="no"/>
      <point x="262" y="1116" type="line" smooth="no"/>
      <point x="206" y="1250" type="line" smooth="no"/>
      <point x="418" y="1334" type="line" smooth="no"/>
      <point x="200" y="1546" type="line" smooth="no"/>
      <point x="463" y="1546" type="line" smooth="no"/>
      <point x="595" y="1411" type="line" smooth="no"/>
      <point x="863" y="1517" type="line" smooth="no"/>
      <point x="921" y="1386" type="line" smooth="no"/>
      <point x="696" y="1298" type="line" smooth="no"/>
      <point x="833" y="1148"/>
      <point x="954" y="1002"/>
      <point x="1032" y="870" type="curve" smooth="no"/>
      <point x="1105" y="744"/>
      <point x="1140" y="618"/>
      <point x="1140" y="486" type="curve" smooth="yes"/>
      <point x="1140" y="203"/>
      <point x="968" y="-23"/>
    </contour>
  </outline>
</glyph>
<glyph name="Hbar" format="1">
  <advance width="1478"/>
  <unicode hex="0126"/>
  <outline>
    <contour>
      <point x="364" y="851" type="line" smooth="no"/>
      <point x="1116" y="851" type="line" smooth="no"/>
      <point x="1116" y="1163" type="line" smooth="no"/>
      <point x="364" y="1163" type="line" smooth="no"/>
    </contour>
    <contour>
      <point x="138" y="0" type="line" smooth="no"/>
      <point x="138" y="1163" type="line" smooth="no"/>
      <point x="51" y="1163" type="line" smooth="no"/>
      <point x="51" y="1283" type="line" smooth="no"/>
      <point x="138" y="1283" type="line" smooth="no"/>
      <point x="138" y="1475" type="line" smooth="no"/>
      <point x="364" y="1475" type="line" smooth="no"/>
      <point x="364" y="1283" type="line" smooth="no"/>
      <point x="1116" y="1283" type="line" smooth="no"/>
      <point x="1116" y="1475" type="line" smooth="no"/>
      <point x="1342" y="1475" type="line" smooth="no"/>
      <point x="1342" y="1283" type="line" smooth="no"/>
      <point x="1430" y="1283" type="line" smooth="no"/>
      <point x="1430" y="1163" type="line" smooth="no"/>
      <point x="1342" y="1163" type="line" smooth="no"/>
      <point x="1342" y="0" type="line" smooth="no"/>
      <point x="1116" y="0" type="line" smooth="no"/>
      <point x="1116" y="675" type="line" smooth="no"/>
      <point x="364" y="675" type="line" smooth="no"/>
      <point x="364" y="0" type="line" smooth="no"/>
    </contour>
  </outline>
</glyph>
<glyph name="Lslash" format="1">
  <advance width="988"/>
  <unicode hex="0141"/>
  <outline>
    <contour>
      <point x="139" y="0" type="line" smooth="no"/>
      <point x="139" y="597" type="line" smooth="no"/>
      <point x="-11" y="512" type="line" smooth="no"/>
      <point x="-11" y="680" type="line" smooth="no"/>
      <point x="139" y="766" type="line" smooth="no"/>
      <point x="139" y="1478" type="line" smooth="no"/>
      <point x="365" y="1478" type="line" smooth="no"/>
      <point x="365" y="895" type="line" smooth="no"/>
      <point x="700" y="1083" type="line" smooth="no"/>
      <point x="700" y="911" type="line" smooth="no"/>
      <point x="365" y="725" type="line" smooth="no"/>
      <point x="365" y="180" type="line" smooth="no"/>
      <point x="1001" y="180" type="line" smooth="no"/>
      <point x="988" y="0" type="line" smooth="no"/>
    </contour>
  </outline>
</glyph>
<glyph name="OE" format="1">
  <advance width="2085"/>
  <unicode hex="0152"/>
  <outline>
    <contour>
      <point x="818" y="160" type="curve" smooth="no"/>
      <point x="964" y="160"/>
      <point x="1100" y="220"/>
      <point x="1159" y="267" type="curve" smooth="no"/>
      <point x="1159" y="1202" type="line" smooth="no"/>
      <point x="1083" y="1271"/>
      <point x="965" y="1325"/>
      <point x="813" y="1325" type="curve" smooth="yes"/>
      <point x="499" y="1325"/>
      <point x="324" y="1067"/>
      <point x="319" y="752" type="curve" smooth="no"/>
      <point x="319" y="434"/>
      <point x="466" y="163"/>
    </contour>
    <contour>
      <point x="819" y="-21" type="curve" smooth="yes"/>
      <point x="366" y="-21"/>
      <point x="90" y="299"/>
      <point x="90" y="753" type="curve" smooth="no"/>
      <point x="96" y="1189"/>
      <point x="396" y="1505"/>
      <point x="805" y="1505" type="curve" smooth="yes"/>
      <point x="951" y="1505"/>
      <point x="1073" y="1462"/>
      <point x="1159" y="1397" type="curve" smooth="no"/>
      <point x="1159" y="1477" type="line" smooth="no"/>
      <point x="1996" y="1477" type="line" smooth="no"/>
      <point x="1979" y="1295" type="line" smooth="no"/>
      <point x="1379" y="1295" type="line" smooth="no"/>
      <point x="1379" y="855" type="line" smooth="no"/>
      <point x="1945" y="855" type="line" smooth="no"/>
      <point x="1945" y="675" type="line" smooth="no"/>
      <point x="1379" y="675" type="line" smooth="no"/>
      <point x="1379" y="184" type="line" smooth="no"/>
      <point x="2023" y="184" type="line" smooth="no"/>
      <point x="2007" y="2" type="line" smooth="no"/>
      <point x="1159" y="2" type="line" smooth="no"/>
      <point x="1159" y="84" type="line" smooth="no"/>
      <point x="1092" y="30"/>
      <point x="946" y="-21"/>
    </contour>
  </outline>
</glyph>
<glyph name="florin" format="1">
  <advance width="1019"/>
  <unicode hex="0192"/>
  <outline>
    <contour>
      <point x="140" y="-346" type="curve" smooth="yes"/>
      <point x="111" y="-346"/>
      <point x="52" y="-332"/>
      <point x="31" y="-325" type="curve" smooth="no"/>
      <point x="45" y="-156" type="line" smooth="no"/>
      <point x="61" y="-162"/>
      <point x="109" y="-178"/>
      <point x="128" y="-178" type="curve" smooth="yes"/>
      <point x="212" y="-178"/>
      <point x="247" y="-85"/>
      <point x="271" y="20" type="curve" smooth="no"/>
      <point x="334" y="276"/>
      <point x="376" y="575"/>
      <point x="428" y="841" type="curve" smooth="no"/>
      <point x="270" y="841" type="line" smooth="no"/>
      <point x="281" y="990" type="line" smooth="no"/>
      <point x="457" y="990" type="line" smooth="no"/>
      <point x="477" y="1135" type="line" smooth="no"/>
      <point x="505" y="1328"/>
      <point x="588" y="1504"/>
      <point x="820" y="1504" type="curve" smooth="yes"/>
      <point x="865" y="1504"/>
      <point x="940" y="1488"/>
      <point x="966" y="1481" type="curve" smooth="no"/>
      <point x="955" y="1301" type="line" smooth="no"/>
      <point x="934" y="1310"/>
      <point x="875" y="1330"/>
      <point x="844" y="1330" type="curve" smooth="yes"/>
      <point x="743" y="1330"/>
      <point x="712" y="1277"/>
      <point x="696" y="1178" type="curve" smooth="no"/>
      <point x="660" y="990" type="line" smooth="no"/>
      <point x="850" y="990" type="line" smooth="no"/>
      <point x="840" y="840" type="line" smooth="no"/>
      <point x="634" y="840" type="line" smooth="no"/>
      <point x="501" y="129" type="line" smooth="no"/>
      <point x="456" y="-105"/>
      <point x="393" y="-346"/>
    </contour>
  </outline>
</glyph>
<glyph name="caron" format="1">
  <advance width="785"/>
  <unicode hex="02c7"/>
  <outline>
    <contour>
      <point x="299" y="1220" type="line" smooth="no"/>
      <point x="71" y="1589" type="line" smooth="no"/>
      <point x="239" y="1589" type="line" smooth="no"/>
      <point x="399" y="1339" type="line" smooth="no"/>
      <point x="562" y="1589" type="line" smooth="no"/>
      <point x="733" y="1589" type="line" smooth="no"/>
      <point x="506" y="1220" type="line" smooth="no"/>
    </contour>
  </outline>
</glyph>
<glyph name="ogonek" format="1">
  <advance width="583"/>
  <unicode hex="02db"/>
  <outline>
    <contour>
      <point x="316" y="-404" type="curve" smooth="yes"/>
      <point x="205" y="-404"/>
      <point x="116" y="-347"/>
      <point x="116" y="-230" type="curve" smooth="yes"/>
      <point x="116" y="-111"/>
      <point x="219" y="-30"/>
      <point x="307" y="20" type="curve" smooth="no"/>
      <point x="417" y="20" type="line" smooth="no"/>
      <point x="323" y="-49"/>
      <point x="268" y="-122"/>
      <point x="268" y="-188" type="curve" smooth="yes"/>
      <point x="268" y="-235"/>
      <point x="306" y="-276"/>
      <point x="352" y="-276" type="curve" smooth="yes"/>
      <point x="410" y="-276"/>
      <point x="462" y="-253"/>
      <point x="492" y="-240" type="curve" smooth="no"/>
      <point x="492" y="-370" type="line" smooth="no"/>
      <point x="443" y="-390"/>
      <point x="375" y="-404"/>
    </contour>
  </outline>
</glyph>
<glyph name="uni0311" format="1">
  <advance width="738"/>
  <unicode hex="0311"/>
  <outline>
    <contour>
      <point x="96" y="1261" type="line" smooth="no"/>
      <point x="96" y="1427"/>
      <point x="233" y="1509"/>
      <point x="368" y="1509" type="curve" smooth="yes"/>
      <point x="503" y="1509"/>
      <point x="640" y="1428"/>
      <point x="640" y="1261" type="curve" smooth="no"/>
      <point x="496" y="1261" type="line" smooth="no"/>
      <point x="496" y="1345"/>
      <point x="433" y="1384"/>
      <point x="366" y="1384" type="curve" smooth="yes"/>
      <point x="300" y="1384"/>
      <point x="239" y="1345"/>
      <point x="239" y="1261" type="curve" smooth="no"/>
    </contour>
  </outline>
</glyph>
<glyph name="pi" format="1">
  <advance width="1437"/>
  <unicode hex="03c0"/>
  <outline>
    <contour>
      <point x="1157" y="-8" type="curve" smooth="yes"/>
      <point x="989" y="-8"/>
      <point x="945" y="104"/>
      <point x="945" y="307" type="curve" smooth="yes"/>
      <point x="947" y="951" type="line" smooth="no"/>
      <point x="568" y="951" type="line" smooth="no"/>
      <point x="553" y="579"/>
      <point x="520" y="178"/>
      <point x="426" y="0" type="curve" smooth="no"/>
      <point x="242" y="0" type="line" smooth="no"/>
      <point x="340" y="204"/>
      <point x="375" y="767"/>
      <point x="380" y="953" type="curve" smooth="no"/>
      <point x="267" y="949"/>
      <point x="197" y="926"/>
      <point x="126" y="882" type="curve" smooth="no"/>
      <point x="105" y="1042" type="line" smooth="no"/>
      <point x="181" y="1104"/>
      <point x="280" y="1113"/>
      <point x="446" y="1113" type="curve" smooth="yes"/>
      <point x="1309" y="1113" type="line" smooth="no"/>
      <point x="1309" y="949" type="line" smooth="no"/>
      <point x="1120" y="949" type="line" smooth="no"/>
      <point x="1120" y="317" type="line" smooth="yes"/>
      <point x="1120" y="244"/>
      <point x="1125" y="177"/>
      <point x="1199" y="177" type="curve" smooth="yes"/>
      <point x="1225" y="177"/>
      <point x="1259" y="187"/>
      <point x="1290" y="196" type="curve" smooth="no"/>
      <point x="1288" y="170"/>
      <point x="1282" y="6"/>
      <point x="1282" y="6" type="curve" smooth="no"/>
      <point x="1237" y="-2"/>
      <point x="1197" y="-8"/>
    </contour>
  </outline>
</glyph>
<glyph name="quoteright" format="1">
  <advance width="470"/>
  <unicode hex="2019"/>
  <outline>
    <contour>
      <point x="94" y="1054" type="line" smooth="no"/>
      <point x="195" y="1537" type="line" smooth="no"/>
      <point x="385" y="1537" type="line" smooth="no"/>
      <point x="237" y="1054" type="line" smooth="no"/>
    </contour>
  </outline>
</glyph>
<glyph name="daggerdbl" format="1">
  <advance width="975"/>
  <unicode hex="2021"/>
  <outline>
    <contour>
      <point x="407" y="36" type="line" smooth="no"/>
      <point x="407" y="413" type="line" smooth="no"/>
      <point x="117" y="413" type="line" smooth="no"/>
      <point x="117" y="564" type="line" smooth="no"/>
      <point x="407" y="564" type="line" smooth="no"/>
      <point x="407" y="1006" type="line" smooth="no"/>
      <point x="121" y="1006" type="line" smooth="no"/>
      <point x="121" y="1158" type="line" smooth="no"/>
      <point x="407" y="1158" type="line" smooth="no"/>
      <point x="407" y="1510" type="line" smooth="no"/>
      <point x="575" y="1510" type="line" smooth="no"/>
      <point x="575" y="1158" type="line" smooth="no"/>
      <point x="865" y="1158" type="line" smooth="no"/>
      <point x="865" y="1006" type="line" smooth="no"/>
      <point x="575" y="1006" type="line" smooth="no"/>
      <point x="575" y="564" type="line" smooth="no"/>
      <point x="860" y="564" type="line" smooth="no"/>
      <point x="860" y="413" type="line" smooth="no"/>
      <point x="575" y="413" type="line" smooth="no"/>
      <point x="575" y="36" type="line" smooth="no"/>
    </contour>
  </outline>
</glyph>
<glyph name="Euro" format="1">
  <advance width="1210"/>
  <unicode hex="20ac"/>
  <outline>
    <contour>
      <point x="777" y="-21" type="curve" smooth="yes"/>
      <point x="427" y="-21"/>
      <point x="266" y="258"/>
      <point x="222" y="545" type="curve" smooth="no"/>
      <point x="92" y="545" type="line" smooth="no"/>
      <point x="113" y="674" type="line" smooth="no"/>
      <point x="205" y="674" type="line" smooth="no"/>
      <point x="205" y="731" type="line" smooth="yes"/>
      <point x="205" y="753"/>
      <point x="207" y="804"/>
      <point x="208" y="826" type="curve" smooth="no"/>
      <point x="90" y="826" type="line" smooth="no"/>
      <point x="114" y="957" type="line" smooth="no"/>
      <point x="228" y="957" type="line" smooth="no"/>
      <point x="283" y="1263"/>
      <point x="465" y="1497"/>
      <point x="798" y="1497" type="curve" smooth="yes"/>
      <point x="928" y="1497"/>
      <point x="1031" y="1460"/>
      <point x="1111" y="1385" type="curve" smooth="no"/>
      <point x="1085" y="1197" type="line" smooth="no"/>
      <point x="1016" y="1284"/>
      <point x="919" y="1332"/>
      <point x="812" y="1332" type="curve" smooth="yes"/>
      <point x="610" y="1332"/>
      <point x="472" y="1183"/>
      <point x="439" y="957" type="curve" smooth="no"/>
      <point x="1002" y="957" type="line" smooth="no"/>
      <point x="981" y="827" type="line" smooth="no"/>
      <point x="417" y="827" type="line" smooth="no"/>
      <point x="414" y="798"/>
      <point x="414" y="675"/>
      <point x="413" y="674" type="curve" smooth="no"/>
      <point x="969" y="674" type="line" smooth="no"/>
      <point x="953" y="545" type="line" smooth="no"/>
      <point x="434" y="545" type="line" smooth="no"/>
      <point x="467" y="321"/>
      <point x="594" y="155"/>
      <point x="801" y="155" type="curve" smooth="yes"/>
      <point x="900" y="155"/>
      <point x="1004" y="192"/>
      <point x="1102" y="271" type="curve" smooth="no"/>
      <point x="1101" y="78" type="line" smooth="no"/>
      <point x="1009" y="13"/>
      <point x="907" y="-21"/>
    </contour>
  </outline>
</glyph>
<glyph name="trademark" format="1">
  <advance width="1817"/>
  <unicode hex="2122"/>
  <outline>
    <contour>
      <point x="334" y="640" type="line" smooth="no"/>
      <point x="334" y="1356" type="line" smooth="no"/>
      <point x="80" y="1356" type="line" smooth="no"/>
      <point x="79" y="1482" type="line" smooth="no"/>
      <point x="731" y="1482" type="line" smooth="no"/>
      <point x="731" y="1356" type="line" smooth="no"/>
      <point x="477" y="1356" type="line" smooth="no"/>
      <point x="477" y="640" type="line" smooth="no"/>
    </contour>
    <contour>
      <point x="823" y="640" type="line" smooth="no"/>
      <point x="823" y="1482" type="line" smooth="no"/>
      <point x="1012" y="1482" type="line" smooth="no"/>
      <point x="1253" y="877" type="line" smooth="no"/>
      <point x="1505" y="1482" type="line" smooth="no"/>
      <point x="1682" y="1482" type="line" smooth="no"/>
      <point x="1682" y="640" type="line" smooth="no"/>
      <point x="1543" y="640" type="line" smooth="no"/>
      <point x="1543" y="1277" type="line" smooth="no"/>
      <point x="1294" y="682" type="line" smooth="no"/>
      <point x="1198" y="682" type="line" smooth="no"/>
      <point x="963" y="1274" type="line" smooth="no"/>
      <point x="963" y="640" type="line" smooth="no"/>
    </contour>
  </outline>
</glyph>
<glyph name="product" format="1">
  <advance width="1499"/>
  <unicode hex="220f"/>
  <outline>
    <contour>
      <point x="186" y="-133" type="line" smooth="no"/>
      <point x="186" y="1471" type="line" smooth="no"/>
      <point x="1322" y="1471" type="line" smooth="no"/>
      <point x="1322" y="-133" type="line" smooth="no"/>
      <point x="1122" y="-133" type="line" smooth="no"/>
      <point x="1122" y="1296" type="line" smooth="no"/>
      <point x="385" y="1296" type="line" smooth="no"/>
      <point x="385" y="-133" type="line" smooth="no"/>
    </contour>
  </outline>
</glyph>
<glyph name="approxequal" format="1">
  <advance width="1313"/>
  <unicode hex="2248"/>
  <outline>
    <contour>
      <point x="231" y="594" type="curve" smooth="no"/>
      <point x="135" y="674" type="line" smooth="no"/>
      <point x="176" y="818"/>
      <point x="269" y="917"/>
      <point x="426" y="917" type="curve" smooth="yes"/>
      <point x="515" y="917"/>
      <point x="601" y="882"/>
      <point x="691" y="834" type="curve" smooth="yes"/>
      <point x="781" y="785"/>
      <point x="842" y="761"/>
      <point x="901" y="761" type="curve" smooth="yes"/>
      <point x="986" y="761"/>
      <point x="1045" y="812"/>
      <point x="1107" y="919" type="curve" smooth="no"/>
      <point x="1197" y="842" type="line" smooth="no"/>
      <point x="1156" y="707"/>
      <point x="1051" y="600"/>
      <point x="890" y="600" type="curve" smooth="yes"/>
      <point x="797" y="600"/>
      <point x="720" y="633"/>
      <point x="613" y="692" type="curve" smooth="yes"/>
      <point x="546" y="730"/>
      <point x="488" y="757"/>
      <point x="420" y="757" type="curve" smooth="yes"/>
      <point x="322" y="757"/>
      <point x="264" y="688"/>
    </contour>
    <contour>
      <point x="231" y="184" type="curve" smooth="no"/>
      <point x="136" y="267" type="line" smooth="no"/>
      <point x="177" y="412"/>
      <point x="269" y="510"/>
      <point x="427" y="510" type="curve" smooth="yes"/>
      <point x="518" y="510"/>
      <point x="610" y="471"/>
      <point x="690" y="431" type="curve" smooth="yes"/>
      <point x="772" y="389"/>
      <point x="841" y="354"/>
      <point x="902" y="354" type="curve" smooth="yes"/>
      <point x="987" y="354"/>
      <point x="1046" y="406"/>
      <point x="1109" y="512" type="curve" smooth="no"/>
      <point x="1198" y="434" type="line" smooth="no"/>
      <point x="1157" y="299"/>
      <point x="1054" y="192"/>
      <point x="892" y="192" type="curve" smooth="yes"/>
      <point x="801" y="192"/>
      <point x="722" y="225"/>
      <point x="614" y="284" type="curve" smooth="no"/>
      <point x="547" y="322"/>
      <point x="489" y="349"/>
      <point x="422" y="349" type="curve" smooth="yes"/>
      <point x="324" y="349"/>
      <point x="266" y="278"/>
    </contour>
  </outline>
</glyph>
<glyph name="lozenge" format="1">
  <advance width="1188"/>
  <unicode hex="25ca"/>
  <outline>
    <contour>
      <point x="590" y="129" type="curve" smooth="no"/>
      <point x="703" y="338"/>
      <point x="819" y="542"/>
      <point x="931" y="746" type="curve" smooth="no"/>
      <point x="821" y="951"/>
      <point x="708" y="1155"/>
      <point x="601" y="1361" type="curve" smooth="no"/>
      <point x="487" y="1154"/>
      <point x="372" y="950"/>
      <point x="260" y="747" type="curve" smooth="no"/>
      <point x="370" y="541"/>
      <point x="478" y="333"/>
    </contour>
    <contour>
      <point x="531" y="-47" type="line" smooth="no"/>
      <point x="93" y="745" type="line" smooth="no"/>
      <point x="538" y="1541" type="line" smooth="no"/>
      <point x="659" y="1541" type="line" smooth="no"/>
      <point x="1098" y="747" type="line" smooth="no"/>
      <point x="650" y="-47" type="line" smooth="no"/>
    </contour>
  </outline>
</glyph>
